# xmcd CD database file
#
# Track frame offsets:
#	150
#	16496
#	30542
#	41340
#	57990
#	78689
#	97807
#	111677
#	135280
#	156894
#	173217
#	188783
#	206608
#	219596
#	236534
#	254379
#
# Disc length: 3620 seconds
#
# Revision: 0
# Processed by: cddbd v1.5.1PL2 Copyright (c) Steve Scherf et al.
# Submitted via: CDex 1.51
#
DISCID=d80e2210
DTITLE=0470-Garth Brooks - The Best Of CD 1
DYEAR=2003
DGENRE=Country
TTITLE0=2 Pina Coladas 
TTITLE1=A Friend To Me 
TTITLE2=Against the Grain
TTITLE3=Alabama Clay
TTITLE4=Anonymous
TTITLE5=Beaches of Cheyenne
TTITLE6=Beer Run 
TTITLE7=Boot Scootin Boogie
TTITLE8=Burning Both Ends of the Night
TTITLE9=Burning Bridges 
TTITLE10=Chestnuts Roasting On An Open Fire
TTITLE11=Cold Shoulder
TTITLE12=Cowboy Cadillac
TTITLE13=A Tribute to Dale Earnhardt
TTITLE14=Damned Old Rodeo
TTITLE15=Desperado 
EXTD=YEAR: 2003
EXTT0=
EXTT1=
EXTT2=
EXTT3=
EXTT4=
EXTT5=
EXTT6=
EXTT7=
EXTT8=
EXTT9=
EXTT10=
EXTT11=
EXTT12=
EXTT13=
EXTT14=
EXTT15=
PLAYORDER=
